<svg width="100" height="34" viewBox="0 0 100 34" fill="none" xmlns="http://www.w3.org/2000/svg">
<path d="M44.0451 28.7218C44.0451 29.0342 43.7918 29.2875 43.4794 29.2875H39.678C39.3656 29.2875 39.1123 29.0342 39.1123 28.7218V5.20633C39.1123 4.8939 39.3656 4.64063 39.678 4.64063H43.4794C43.7918 4.64063 44.0451 4.8939 44.0451 5.20633V13.9406C44.0451 14.253 44.2984 14.5063 44.6108 14.5063H53.3279C53.6403 14.5063 53.8936 14.253 53.8936 13.9406V5.20633C53.8936 4.8939 54.1468 4.64063 54.4593 4.64063H58.2607C58.5731 4.64063 58.8264 4.8939 58.8264 5.20633V28.7218C58.8264 29.0342 58.5731 29.2875 58.2607 29.2875H54.4593C54.1468 29.2875 53.8936 29.0342 53.8936 28.7218V20.0048C53.8936 19.6924 53.6403 19.4391 53.3279 19.4391H44.6108C44.2984 19.4391 44.0451 19.6924 44.0451 20.0048V28.7218Z" fill="black"/>
<path d="M69.8594 5.87813C69.8594 6.31354 69.7735 6.72032 69.6016 7.09844C69.4412 7.47657 69.2177 7.80886 68.9313 8.09532C68.6448 8.37032 68.3068 8.59375 67.9172 8.76563C67.5391 8.92605 67.1323 9.00626 66.6969 9.00626C66.2615 9.00626 65.849 8.92605 65.4594 8.76563C65.0813 8.59375 64.749 8.37032 64.4625 8.09532C64.1875 7.80886 63.9641 7.47657 63.7922 7.09844C63.6318 6.72032 63.5516 6.31354 63.5516 5.87813C63.5516 5.45417 63.6318 5.05313 63.7922 4.675C63.9641 4.28542 64.1875 3.95313 64.4625 3.67813C64.749 3.39167 65.0813 3.16823 65.4594 3.00781C65.849 2.83594 66.2615 2.75 66.6969 2.75C67.1323 2.75 67.5391 2.83594 67.9172 3.00781C68.3068 3.16823 68.6448 3.39167 68.9313 3.67813C69.2177 3.95313 69.4412 4.28542 69.6016 4.675C69.7735 5.05313 69.8594 5.45417 69.8594 5.87813ZM69.0516 28.7218C69.0516 29.0342 68.7983 29.2875 68.4859 29.2875H64.8907C64.5783 29.2875 64.325 29.0342 64.325 28.7218V11.4454C64.325 11.133 64.5783 10.8797 64.8907 10.8797H68.4859C68.7983 10.8797 69.0516 11.133 69.0516 11.4454V28.7218Z" fill="black"/>
<path d="M78.7783 28.7218C78.7783 29.0342 78.5251 29.2875 78.2126 29.2875H74.6175C74.305 29.2875 74.0518 29.0342 74.0518 28.7218V4.12352C74.0518 3.81109 74.305 3.55781 74.6175 3.55781H78.2126C78.5251 3.55781 78.7783 3.81109 78.7783 4.12352V18.1521C78.7783 18.6889 79.4558 18.9239 79.7882 18.5025L85.6038 11.1294C85.7111 10.9934 85.8747 10.9141 86.048 10.9141H89.9972C90.4709 10.9141 90.7348 11.4615 90.4398 11.8321L85.3075 18.2801C85.1634 18.461 85.1441 18.7115 85.2586 18.9124L90.6886 28.4417C90.9035 28.8189 90.6311 29.2875 90.1971 29.2875H86.1059C85.9008 29.2875 85.7117 29.1765 85.6118 28.9974L82.467 23.3599C82.2678 23.0028 81.7673 22.9685 81.5212 23.2949L78.8923 26.7816C78.8184 26.8798 78.7783 26.9993 78.7783 27.1222V28.7218Z" fill="black"/>
<path d="M99.9692 5.87813C99.9692 6.31354 99.8832 6.72032 99.7114 7.09844C99.5509 7.47657 99.3275 7.80886 99.041 8.09532C98.7546 8.37032 98.4166 8.59375 98.027 8.76563C97.6489 8.92605 97.2421 9.00626 96.8067 9.00626C96.3713 9.00626 95.9587 8.92605 95.5692 8.76563C95.191 8.59375 94.8587 8.37032 94.5723 8.09532C94.2973 7.80886 94.0738 7.47657 93.902 7.09844C93.7416 6.72032 93.6613 6.31354 93.6613 5.87813C93.6613 5.45417 93.7416 5.05313 93.902 4.675C94.0738 4.28542 94.2973 3.95313 94.5723 3.67813C94.8587 3.39167 95.191 3.16823 95.5692 3.00781C95.9587 2.83594 96.3713 2.75 96.8067 2.75C97.2421 2.75 97.6489 2.83594 98.027 3.00781C98.4166 3.16823 98.7546 3.39167 99.041 3.67813C99.3275 3.95313 99.5509 4.28542 99.7114 4.675C99.8832 5.05313 99.9692 5.45417 99.9692 5.87813ZM99.1614 28.7218C99.1614 29.0342 98.9081 29.2875 98.5956 29.2875H95.0005C94.6881 29.2875 94.4348 29.0342 94.4348 28.7218V11.4454C94.4348 11.133 94.6881 10.8797 95.0005 10.8797H98.5956C98.9081 10.8797 99.1614 11.133 99.1614 11.4454V28.7218Z" fill="black"/>
<path d="M15.071 16.8706C12.912 14.6354 11.6951 11.6067 11.6859 8.44578C11.6767 5.28489 12.876 2.24864 15.022 0L0 15.5446L8.17597 24.0084L15.071 16.8706Z" fill="url(#paint0_linear_1310_21922)"/>
<path d="M20.7302 9.99121L13.8418 17.1032C14.9168 18.2124 15.7695 19.5294 16.3513 20.979C16.9331 22.4286 17.2326 23.9823 17.2326 25.5514C17.2326 27.1205 16.9331 28.6743 16.3513 30.1238C15.7695 31.5734 14.9168 32.8905 13.8418 33.9997L28.9128 18.4394L20.7302 9.99121Z" fill="url(#paint1_linear_1310_21922)"/>
<defs>
<linearGradient id="paint0_linear_1310_21922" x1="13.8452" y1="9.68205" x2="3.928" y2="19.2619" gradientUnits="userSpaceOnUse">
<stop offset="0.18" stop-color="#0052CC"/>
<stop offset="1" stop-color="#2684FF"/>
</linearGradient>
<linearGradient id="paint1_linear_1310_21922" x1="598.295" y1="1457.22" x2="935.811" y2="1245.35" gradientUnits="userSpaceOnUse">
<stop offset="0.18" stop-color="#0052CC"/>
<stop offset="1" stop-color="#2684FF"/>
</linearGradient>
</defs>
</svg>
