<svg width="302" height="115" viewBox="0 0 302 115" fill="none" xmlns="http://www.w3.org/2000/svg">
<circle opacity="0.6" cx="144.5" cy="57.5" r="57.5" fill="#C4F2EA"/>
<circle cx="144" cy="57" r="35" fill="#28D9AA"/>
<g clip-path="url(#clip0_1517_24355)">
<path d="M136 57L141 62L151 52" stroke="white" stroke-width="2.5" stroke-linecap="round" stroke-linejoin="round"/>
</g>
<circle cx="224.5" cy="4.5" r="1.5" fill="#28D9AA"/>
<circle cx="244.5" cy="20.5" r="1.5" fill="#28D9AA"/>
<circle cx="249.5" cy="50.5" r="1.5" fill="#28D9AA"/>
<circle cx="217.5" cy="93.5" r="1.5" fill="#28D9AA"/>
<circle cx="214" cy="41" r="2" fill="#28D9AA"/>
<circle cx="226" cy="82" r="1" fill="#28D9AA"/>
<circle cx="300.5" cy="69.5" r="1.5" fill="#28D9AA"/>
<rect x="281" y="38" width="4" height="4" rx="2" fill="#28D9AA"/>
<circle cx="259" cy="73" r="3" fill="#28D9AA"/>
<circle cx="255" cy="105" r="2" fill="#28D9AA"/>
<circle cx="58" cy="55" r="1" fill="#28D9AA"/>
<circle cx="60.5" cy="87.5" r="1.5" fill="#28D9AA"/>
<circle cx="51.5" cy="13.5" r="1.5" fill="#28D9AA"/>
<circle cx="3" cy="22" r="1" fill="#28D9AA"/>
<circle cx="3" cy="22" r="1" fill="#28D9AA"/>
<circle cx="83.5" cy="110.5" r="1.5" fill="#28D9AA"/>
<circle cx="7" cy="44" r="2" fill="#28D9AA"/>
<circle cx="37" cy="31" r="3" fill="#28D9AA"/>
<circle cx="77.5" cy="16.5" r="2.5" fill="#28D9AA"/>
<circle cx="1.5" cy="99.5" r="1.5" fill="#28D9AA"/>
<circle cx="27" cy="77" r="2" fill="#28D9AA"/>
<circle cx="33" cy="107" r="2" fill="#28D9AA"/>
<defs>
<clipPath id="clip0_1517_24355">
<rect width="24" height="24" fill="white" transform="translate(132 45)"/>
</clipPath>
</defs>
</svg>
