<svg width="22" height="24" viewBox="0 0 22 24" fill="none" xmlns="http://www.w3.org/2000/svg">
<path d="M12.8703 21.7238C12.6803 22.0512 12.4078 22.323 12.0798 22.5119C11.7518 22.7008 11.38 22.8002 11.0015 22.8002C10.623 22.8002 10.2512 22.7008 9.92325 22.5119C9.59529 22.323 9.32271 22.0512 9.1328 21.7238M17.4831 7.68134C17.4831 5.96244 16.8003 4.31393 15.5849 3.09848C14.3694 1.88303 12.7209 1.2002 11.002 1.2002C9.28309 1.2002 7.63458 1.88303 6.41913 3.09848C5.20368 4.31393 4.52085 5.96244 4.52085 7.68134C4.52085 15.2427 1.28027 17.4031 1.28027 17.4031H20.7237C20.7237 17.4031 17.4831 15.2427 17.4831 7.68134Z" stroke="#0052CC" stroke-width="2" stroke-linecap="round" stroke-linejoin="round"/>
</svg>
